<svg width="15" height="8" viewBox="0 0 15 8" fill="none" xmlns="http://www.w3.org/2000/svg">
<path d="M5.5722 1.29075L0.982199 5.88075C0.795948 6.06811 0.691406 6.32156 0.691406 6.58575C0.691406 6.84994 0.795948 7.10339 0.982199 7.29075C1.07516 7.38448 1.18576 7.45887 1.30762 7.50964C1.42948 7.56041 1.56019 7.58655 1.6922 7.58655C1.82421 7.58655 1.95492 7.56041 2.07678 7.50964C2.19863 7.45887 2.30924 7.38448 2.4022 7.29075L6.9822 2.69075C7.07516 2.59702 7.18576 2.52263 7.30762 2.47186C7.42948 2.42109 7.56019 2.39495 7.6922 2.39495C7.82421 2.39495 7.95492 2.42109 8.07678 2.47186C8.19864 2.52263 8.30924 2.59702 8.4022 2.69075L12.9822 7.29075C13.1692 7.47905 13.4233 7.58537 13.6887 7.58631C13.954 7.58724 14.2089 7.48273 14.3972 7.29575C14.5855 7.10877 14.6918 6.85465 14.6928 6.58928C14.6937 6.32392 14.5892 6.06905 14.4022 5.88075L9.8122 1.29075C9.2497 0.728948 8.4872 0.413388 7.6922 0.413388C6.8972 0.413388 6.1347 0.728948 5.5722 1.29075Z" fill="#FC5C5C"/>
</svg>
