<svg width="20" height="20" viewBox="0 0 20 20" fill="none" xmlns="http://www.w3.org/2000/svg">
<g clip-path="url(#clip0_2057_8611)">
<path d="M12.5758 13.3309C18.0517 13.3034 20 10.4034 20 7.91669C20 6.51919 19.01 5.35002 17.6958 5.06752C17.8092 4.74585 17.9075 4.45002 17.9733 4.22585C18.2675 3.23169 18.0775 2.18169 17.4517 1.34419C16.8133 0.490854 15.8375 0.000854492 14.7733 0.000854492H5.22583C4.16167 0.000854492 3.185 0.490854 2.54667 1.34419C1.92083 2.18169 1.73083 3.23252 2.025 4.22585C2.09167 4.45002 2.18917 4.74585 2.30333 5.06835C0.989167 5.35085 0 6.52002 0 7.91752C0 10.4042 1.94917 13.3042 7.42417 13.3317C7.47083 13.5834 7.5 13.84 7.5 14.1017V16.6675C7.5 18.1892 6.22 18.3275 5.83333 18.3342H5C4.53917 18.3342 4.16667 18.7067 4.16667 19.1675C4.16667 19.6284 4.53917 20.0009 5 20.0009H15C15.4608 20.0009 15.8333 19.6284 15.8333 19.1675C15.8333 18.7067 15.4608 18.3342 15 18.3342H14.1733C13.78 18.3275 12.5 18.1892 12.5 16.6675V14.1009C12.5 13.84 12.5292 13.5834 12.5758 13.3317V13.3309ZM17.0433 6.65835C17.0575 6.65835 17.0692 6.66669 17.0833 6.66669C17.7725 6.66669 18.3333 7.22752 18.3333 7.91669C18.3333 9.61169 16.9925 11.4142 13.3033 11.6417C13.4875 11.3925 13.6983 11.1617 13.9383 10.9575C15.3875 9.72585 16.3825 8.08002 17.0433 6.65835ZM1.66667 7.91669C1.66667 7.22752 2.2275 6.66669 2.91667 6.66669C2.93083 6.66669 2.9425 6.65919 2.95583 6.65835C3.6175 8.08002 4.6125 9.72585 6.06167 10.9575C6.30167 11.1617 6.5125 11.3917 6.69667 11.6417C3.0075 11.4142 1.66667 9.61169 1.66667 7.91669ZM8.16 8.13585C7.94 7.98419 7.8475 7.70419 7.935 7.45085L8.3675 6.11252L7.22917 5.27919C6.95667 5.07919 6.8975 4.69669 7.0975 4.42419C7.2125 4.26752 7.39583 4.17419 7.59 4.17419H8.99083L9.41667 2.84669C9.52417 2.52419 9.8725 2.35085 10.195 2.45835C10.3783 2.51919 10.5225 2.66335 10.5833 2.84669L11.0083 4.17419H12.4092C12.7467 4.17419 13.0208 4.44752 13.0208 4.78585C13.0208 4.98169 12.9275 5.16502 12.77 5.28002L11.6317 6.11335L12.0642 7.45169C12.1675 7.77335 11.9908 8.11835 11.6683 8.22252C11.4817 8.28252 11.2775 8.24919 11.1192 8.13335L10 7.31002L8.88 8.13252C8.66667 8.29169 8.375 8.29252 8.16 8.13585Z" fill="#FC5C5C"/>
</g>
<defs>
<clipPath id="clip0_2057_8611">
<rect width="20" height="20" fill="white"/>
</clipPath>
</defs>
</svg>
