<svg width="20" height="20" viewBox="0 0 20 20" fill="none" xmlns="http://www.w3.org/2000/svg">
<g clip-path="url(#clip0_2057_8619)">
<path d="M7.2 0H4.05C1.8135 0 0 1.83182 0 4.09091V7.27273C0 8.27727 0.8055 9.09091 1.8 9.09091H7.2C8.1945 9.09091 9 8.27727 9 7.27273V1.81818C9 0.813636 8.1945 0 7.2 0ZM7.2 10.9091H1.8C0.8055 10.9091 0 11.7227 0 12.7273V15.9091C0 18.1682 1.8135 20 4.05 20H7.2C8.1945 20 9 19.1864 9 18.1818V12.7273C9 11.7227 8.1945 10.9091 7.2 10.9091Z" fill="#FC5C5C"/>
<path d="M18.2 9H12.8C11.8055 9 11 8.1945 11 7.2V1.8C11 0.8055 11.8055 0 12.8 0H15.95C18.1865 0 20 1.8135 20 4.05V7.2C20 8.1945 19.1945 9 18.2 9Z" fill="#FC5C5C"/>
<path d="M18.2 11H12.8C11.8055 11 11 11.8055 11 12.8V18.2C11 19.1945 11.8055 20 12.8 20H15.95C18.1865 20 20 18.1865 20 15.95V12.8C20 11.8055 19.1945 11 18.2 11Z" fill="#FC5C5C"/>
</g>
<defs>
<clipPath id="clip0_2057_8619">
<rect width="20" height="20" fill="white"/>
</clipPath>
</defs>
</svg>
