<svg width="20" height="20" viewBox="0 0 20 20" fill="none" xmlns="http://www.w3.org/2000/svg">
<g clip-path="url(#clip0_2057_8629)">
<path fill-rule="evenodd" clip-rule="evenodd" d="M20 14V9.99994C20 7.17146 20 5.75721 19.0414 4.8785C18.1411 4.05318 16.7254 4.00305 14 4V20C16.7254 19.997 18.1411 19.9468 19.0414 19.1215C20 18.2429 20 16.8285 20 14ZM16.7273 8.99982C17.3298 8.99982 17.8182 9.44753 17.8182 9.99984C17.8182 10.5522 17.3298 10.9999 16.7273 10.9999C16.1248 10.9999 15.6364 10.5522 15.6364 9.99984C15.6364 9.44753 16.1248 8.99982 16.7273 8.99982ZM16.7273 12.9999C17.3298 12.9999 17.8182 13.4476 17.8182 13.9999C17.8182 14.5523 17.3298 15 16.7273 15C16.1248 15 15.6364 14.5523 15.6364 13.9999C15.6364 13.4476 16.1248 12.9999 16.7273 12.9999Z" fill="#FC5C5C"/>
<path d="M13.8161 1.25378L11.6239 3.79756H13.2364V20H6.10909C3.22923 20 1.78931 20 0.894655 19.1102C0 18.2205 0 16.7883 0 13.9241V9.87347C0 7.00927 0 5.57716 0.894655 4.68736C1.78931 3.79756 3.22923 3.79756 6.10909 3.79756H8.73976L6.54745 1.25378C6.27299 0.935297 6.31008 0.455836 6.63028 0.182855C6.9505 -0.0901154 7.43258 -0.0532345 7.70705 0.265235L10.1818 3.13676L12.6565 0.265235C12.931 -0.0532345 13.4131 -0.0901256 13.7333 0.182855C14.0535 0.455836 14.0906 0.935297 13.8161 1.25378Z" fill="#FC5C5C"/>
</g>
<defs>
<clipPath id="clip0_2057_8629">
<rect width="20" height="20" fill="white"/>
</clipPath>
</defs>
</svg>
