<svg width="32" height="32" viewBox="0 0 32 32" fill="none" xmlns="http://www.w3.org/2000/svg">
<path d="M27 4H5C2.79086 4 1 5.79086 1 8V24C1 26.2091 2.79086 28 5 28H27C29.2091 28 31 26.2091 31 24V8C31 5.79086 29.2091 4 27 4Z" fill="#DB362F"/>
<path opacity="0.15" d="M27 4H5C2.791 4 1 5.791 1 8V24C1 26.209 2.791 28 5 28H27C29.209 28 31 26.209 31 24V8C31 5.791 29.209 4 27 4ZM30 24C30 25.654 28.654 27 27 27H5C3.346 27 2 25.654 2 24V8C2 6.346 3.346 5 5 5H27C28.654 5 30 6.346 30 8V24Z" fill="black"/>
<path d="M7.95759 10.152L7.18959 7.78601L6.42059 10.152H3.93359L5.94559 11.614L5.17659 13.979L7.18959 12.517L9.20159 13.979L8.43259 11.614L10.4456 10.152H7.95759Z" fill="#FFFF00"/>
<path d="M12.726 8.18696L13.153 8.89796L13.225 8.07196L14.033 7.88596L13.27 7.56196L13.343 6.73596L12.799 7.36096L12.036 7.03696L12.462 7.74796L11.918 8.37296L12.726 8.18696Z" fill="#FFFF00"/>
<path d="M14.8639 10.3719L14.9809 11.1929L15.3689 10.4599L16.1859 10.6019L15.6089 10.0069L15.9959 9.27395L15.2519 9.63895L14.6739 9.04395L14.7919 9.86495L14.0469 10.2299L14.8639 10.3719Z" fill="#FFFF00"/>
<path d="M15.598 13.6121L16.251 13.1011L15.422 13.1301L15.138 12.3521L14.91 13.1491L14.082 13.1791L14.77 13.6421L14.542 14.4391L15.195 13.9281L15.882 14.3911L15.598 13.6121Z" fill="#FFFF00"/>
<path d="M13.2594 15.535L13.2974 14.707L12.7794 15.354L12.0044 15.062L12.4594 15.754L11.9414 16.402L12.7414 16.182L13.1974 16.875L13.2354 16.047L14.0354 15.827L13.2594 15.535Z" fill="#FFFF00"/>
<path opacity="0.2" d="M27 5H5C3.343 5 2 6.343 2 8V9C2 7.343 3.343 6 5 6H27C28.657 6 30 7.343 30 9V8C30 6.343 28.657 5 27 5Z" fill="white"/>
</svg>
