<svg width="18" height="18" viewBox="0 0 18 18" fill="none" xmlns="http://www.w3.org/2000/svg">
<g clip-path="url(#clip0_2091_28953)">
<path d="M13 7C13 4.2375 10.0906 2 6.5 2C2.90937 2 0 4.2375 0 7C0 8.07187 0.440625 9.05937 1.1875 9.875C0.76875 10.8187 0.078125 11.5687 0.06875 11.5781C0 11.65 -0.01875 11.7562 0.021875 11.85C0.0625 11.9437 0.15 12 0.25 12C1.39375 12 2.34062 11.6156 3.02187 11.2187C4.02812 11.7094 5.21875 12 6.5 12C10.0906 12 13 9.7625 13 7ZM16.8125 13.875C17.5594 13.0625 18 12.0719 18 11C18 8.90937 16.3281 7.11875 13.9594 6.37187C13.9875 6.57812 14 6.7875 14 7C14 10.3094 10.6344 13 6.5 13C6.1625 13 5.83437 12.975 5.50938 12.9406C6.49375 14.7375 8.80625 16 11.5 16C12.7812 16 13.9719 15.7125 14.9781 15.2187C15.6594 15.6156 16.6063 16 17.75 16C17.85 16 17.9406 15.9406 17.9781 15.85C18.0187 15.7594 18 15.6531 17.9312 15.5781C17.9219 15.5687 17.2313 14.8219 16.8125 13.875Z" fill="black"/>
</g>
<defs>
<clipPath id="clip0_2091_28953">
<rect width="18" height="18" fill="white"/>
</clipPath>
</defs>
</svg>
