<svg width="16" height="16" viewBox="0 0 16 16" fill="none" xmlns="http://www.w3.org/2000/svg">
<g clip-path="url(#clip0_2057_9121)">
<path d="M8.00424 16C6.88395 15.9933 5.77742 15.7526 4.75552 15.2935C3.73362 14.8343 2.81888 14.1668 2.0699 13.3337C1.32092 12.5005 0.754218 11.5202 0.406085 10.4553C0.0579521 9.39047 -0.0639322 8.26465 0.0482393 7.14997C0.247553 5.40937 1.00716 3.7807 2.21261 2.50936C3.41806 1.23802 5.00404 0.392887 6.73157 0.101305C7.84762 -0.0718507 8.98676 -0.0251983 10.0849 0.238638C10.3741 0.312854 10.638 0.463375 10.8491 0.674468C11.0602 0.885562 11.2107 1.14948 11.2849 1.43864C11.3597 1.72517 11.3558 2.02657 11.2737 2.31108C11.1915 2.59559 11.0342 2.85269 10.8182 3.05531C7.77891 5.83397 8.04157 10.152 11.3562 12.6633C11.5904 12.8472 11.771 13.0906 11.8792 13.3679C11.9875 13.6453 12.0195 13.9466 11.9718 14.2406C11.9242 14.5345 11.7987 14.8103 11.6084 15.0393C11.418 15.2683 11.1698 15.4421 10.8896 15.5426C9.95809 15.847 8.98417 16.0013 8.00424 16ZM13.6649 7.99997C13.5163 7.99997 13.3719 7.9503 13.2548 7.85887C13.1376 7.76743 13.0544 7.63947 13.0182 7.49531L12.7796 6.54197L11.8249 6.28531C11.6813 6.24666 11.5548 6.16112 11.4654 6.0423C11.376 5.92348 11.329 5.77819 11.3316 5.62953C11.3343 5.48087 11.3866 5.33737 11.4802 5.22185C11.5738 5.10633 11.7034 5.02542 11.8482 4.99197L12.7816 4.77531L13.0156 3.83797C13.0517 3.69382 13.135 3.56587 13.2521 3.47445C13.3693 3.38303 13.5136 3.33337 13.6622 3.33337C13.8109 3.33337 13.9552 3.38303 14.0724 3.47445C14.1895 3.56587 14.2728 3.69382 14.3089 3.83797L14.5456 4.78331L15.4909 5.01997C15.6351 5.0561 15.763 5.13936 15.8544 5.25652C15.9458 5.37368 15.9955 5.51803 15.9955 5.66664C15.9955 5.81525 15.9458 5.9596 15.8544 6.07676C15.763 6.19392 15.6351 6.27718 15.4909 6.31331L14.5456 6.54997L14.3089 7.49531C14.2729 7.63903 14.1901 7.76666 14.0734 7.85805C13.9568 7.94944 13.8131 7.99938 13.6649 7.99997ZM15.3316 11.3433C15.1548 11.3433 14.9852 11.4135 14.8602 11.5386C14.7351 11.6636 14.6649 11.8332 14.6649 12.01C14.6649 12.1868 14.7351 12.3564 14.8602 12.4814C14.9852 12.6064 15.1548 12.6766 15.3316 12.6766C15.5084 12.6766 15.678 12.6064 15.803 12.4814C15.928 12.3564 15.9982 12.1868 15.9982 12.01C15.9982 11.8332 15.928 11.6636 15.803 11.5386C15.678 11.4135 15.5084 11.3433 15.3316 11.3433ZM11.3316 8.67664C11.1548 8.67664 10.9852 8.74688 10.8602 8.8719C10.7351 8.99693 10.6649 9.1665 10.6649 9.34331C10.6649 9.52012 10.7351 9.68969 10.8602 9.81471C10.9852 9.93973 11.1548 10.01 11.3316 10.01C11.5084 10.01 11.678 9.93973 11.803 9.81471C11.928 9.68969 11.9982 9.52012 11.9982 9.34331C11.9982 9.1665 11.928 8.99693 11.803 8.8719C11.678 8.74688 11.5084 8.67664 11.3316 8.67664Z" fill="black"/>
</g>
<defs>
<clipPath id="clip0_2057_9121">
<rect width="16" height="16" fill="white"/>
</clipPath>
</defs>
</svg>
