<svg width="32" height="32" viewBox="0 0 32 32" fill="none" xmlns="http://www.w3.org/2000/svg">
<path d="M1 10H31V22H1V10Z" fill="#F1C142"/>
<path d="M5 4H27C29.208 4 31 5.792 31 8V11H1V8C1 5.792 2.792 4 5 4Z" fill="#A0251E"/>
<path d="M27 28L5 28C2.792 28 1 26.208 1 24V21L31 21V24C31 26.208 29.208 28 27 28Z" fill="#A0251E"/>
<path opacity="0.15" d="M27 4H5C2.791 4 1 5.791 1 8V24C1 26.209 2.791 28 5 28H27C29.209 28 31 26.209 31 24V8C31 5.791 29.209 4 27 4ZM30 24C30 25.654 28.654 27 27 27H5C3.346 27 2 25.654 2 24V8C2 6.346 3.346 5 5 5H27C28.654 5 30 6.346 30 8V24Z" fill="black"/>
<path opacity="0.2" d="M27 5H5C3.343 5 2 6.343 2 8V9C2 7.343 3.343 6 5 6H27C28.657 6 30 7.343 30 9V8C30 6.343 28.657 5 27 5Z" fill="white"/>
<path d="M12.6126 13.091C12.6786 13.06 12.6676 12.951 12.5966 12.934C12.6536 12.887 12.6166 12.784 12.5416 12.786C12.5816 12.729 12.5296 12.642 12.4596 12.656C12.4806 12.594 12.4176 12.529 12.3556 12.551C12.3656 12.483 12.2846 12.432 12.2286 12.47C12.2326 12.402 12.1476 12.358 12.0946 12.401C12.0846 12.33 11.9846 12.306 11.9446 12.366C11.9306 12.298 11.8336 12.279 11.7956 12.338C11.7686 12.283 11.6816 12.281 11.6516 12.334C11.6216 12.287 11.5446 12.289 11.5156 12.336C11.4976 12.308 11.4586 12.292 11.4256 12.302C11.4346 12.237 11.3596 12.187 11.3036 12.22C11.3056 12.15 11.2166 12.109 11.1656 12.156C11.1526 12.092 11.0626 12.069 11.0216 12.12C11.0016 12.057 10.9076 12.045 10.8736 12.103C10.8376 12.047 10.7446 12.061 10.7266 12.125C10.6856 12.07 10.5916 12.094 10.5806 12.161C10.5696 12.153 10.5576 12.147 10.5436 12.145C10.5496 12.137 10.5536 12.129 10.5586 12.12H10.5606C10.6186 12.013 10.5646 11.864 10.4546 11.822V11.724H10.5536V11.57H10.4546V11.469H10.3036V11.57H10.2046V11.724H10.3036V11.82C10.1906 11.86 10.1346 12.011 10.1936 12.119H10.1956C10.1996 12.127 10.2046 12.136 10.2096 12.143C10.1946 12.145 10.1806 12.151 10.1696 12.16C10.1586 12.093 10.0636 12.069 10.0236 12.124C10.0056 12.06 9.91262 12.046 9.87662 12.102C9.84262 12.045 9.74862 12.056 9.72862 12.119C9.68762 12.067 9.59762 12.091 9.58462 12.155C9.53362 12.108 9.44562 12.149 9.44662 12.219C9.39062 12.186 9.31562 12.236 9.32462 12.301C9.29062 12.291 9.25262 12.307 9.23362 12.335C9.20462 12.288 9.12762 12.286 9.09762 12.333C9.06762 12.279 8.98062 12.282 8.95462 12.337C8.91762 12.278 8.81962 12.297 8.80562 12.365C8.76662 12.305 8.66562 12.328 8.65562 12.4C8.60262 12.357 8.51762 12.4 8.52162 12.469C8.46562 12.431 8.38462 12.482 8.39462 12.55C8.33262 12.529 8.26962 12.594 8.29062 12.655C8.24062 12.646 8.19462 12.688 8.19462 12.739C8.19462 12.756 8.19962 12.772 8.20862 12.786C8.13362 12.784 8.09762 12.887 8.15362 12.934C8.08262 12.951 8.07162 13.059 8.13762 13.091C8.07662 13.126 8.09062 13.229 8.15962 13.245C8.14662 13.26 8.13862 13.279 8.13862 13.3C8.13862 13.342 8.16862 13.377 8.20762 13.384C8.18462 13.432 8.21662 13.494 8.26762 13.502C8.25462 13.532 8.25562 13.575 8.25562 13.608C8.34562 13.589 8.45562 13.614 8.49462 13.718C8.47962 13.786 8.55962 13.874 8.63262 13.864C8.69262 13.949 8.76562 14.029 8.88362 14.061C8.86262 14.154 8.94762 14.154 9.00662 14.179C8.99362 14.195 8.96362 14.242 8.95162 14.26C8.97562 14.273 9.03862 14.301 9.06462 14.311C9.06962 14.33 9.06862 14.339 9.06862 14.342C9.15962 14.843 11.6026 14.844 11.6846 14.341V14.339C11.6846 14.339 11.6886 14.342 11.6886 14.343C11.6886 14.34 11.6876 14.332 11.6926 14.312L11.8106 14.27L11.7486 14.18C11.8046 14.152 11.8936 14.155 11.8716 14.061C11.9906 14.029 12.0646 13.949 12.1246 13.863C12.1976 13.873 12.2776 13.785 12.2626 13.717C12.3016 13.613 12.4126 13.588 12.5016 13.607C12.5016 13.572 12.5036 13.529 12.4886 13.498C12.5326 13.484 12.5586 13.427 12.5376 13.383C12.5996 13.374 12.6286 13.29 12.5856 13.244C12.6546 13.228 12.6686 13.124 12.6076 13.09L12.6126 13.091ZM12.3166 12.977C12.3166 13.026 12.3046 13.075 12.2826 13.118C12.0846 12.981 11.8056 12.88 11.5886 12.904C11.5866 12.895 11.5826 12.887 11.5776 12.88C11.5776 12.88 11.5776 12.879 11.5776 12.878C11.6416 12.857 11.6516 12.758 11.5926 12.725C11.6406 12.693 11.6376 12.612 11.5876 12.584C11.9156 12.545 12.3166 12.674 12.3166 12.977ZM11.3606 12.702C11.3606 12.765 11.3406 12.826 11.3066 12.877C11.0326 12.818 10.8946 12.708 10.5896 12.692C10.5826 12.61 10.5846 12.521 10.5786 12.438C10.8246 12.248 11.3876 12.376 11.3606 12.702ZM10.1696 12.538C10.1676 12.588 10.1666 12.64 10.1626 12.689C9.86062 12.702 9.71362 12.811 9.44362 12.874C9.18362 12.468 9.85862 12.198 10.1736 12.438C10.1716 12.471 10.1686 12.504 10.1696 12.538ZM9.12362 12.655C9.12362 12.683 9.13762 12.708 9.15762 12.724C9.09962 12.757 9.10862 12.856 9.17262 12.876C9.17262 12.876 9.17262 12.877 9.17262 12.878C9.16762 12.885 9.16462 12.893 9.16162 12.902C8.94262 12.878 8.66662 12.969 8.46362 13.108C8.30862 12.731 8.78662 12.532 9.16162 12.583C9.13862 12.598 9.12262 12.624 9.12262 12.655H9.12362ZM9.07562 14.338V14.34C9.07562 14.34 9.07362 14.34 9.07262 14.342C9.07262 14.341 9.07462 14.338 9.07562 14.338Z" fill="#9B8028"/>
<path d="M14.1349 16.856C14.4099 16.206 14.3359 16.348 13.8159 16.069V15.196C13.9649 15.097 13.7219 15.075 13.8659 14.961H13.9379V14.622H12.9479V14.961H13.0229C13.1589 15.063 12.9319 15.107 13.0729 15.196V15.956C12.5489 15.949 12.3019 16.022 12.3939 16.532H12.4329L12.4489 16.568C12.5889 16.505 12.8209 16.461 13.0729 16.449V16.673C12.6889 16.702 12.6529 17.281 13.0729 17.473V18.764C13.0199 18.781 13.0039 18.853 13.0489 18.887C13.0559 18.952 12.9909 18.979 12.9359 18.97C12.9359 18.996 12.9359 19.207 12.9359 19.239C12.8919 19.263 12.8229 19.269 12.7659 19.267V19.375V19.482V19.589V19.697V19.883C13.2249 19.815 13.6609 19.815 14.1189 19.883V19.267C14.0619 19.269 13.9949 19.263 13.9489 19.239C13.9489 19.206 13.9489 18.998 13.9489 18.971C13.8949 18.979 13.8309 18.954 13.8359 18.89C13.8839 18.857 13.8699 18.782 13.8149 18.764V17.832C13.8529 17.849 13.8879 17.867 13.9199 17.885C13.8149 18.004 13.8279 18.211 13.9509 18.314L14.0079 18.261C14.2299 17.932 14.4039 17.518 13.8149 17.365V17.015C13.9919 16.996 14.1039 16.941 14.1339 16.857L14.1349 16.856Z" fill="#9B8028"/>
<path d="M8.35989 16.058C8.20689 15.996 7.96989 15.96 7.70689 15.956V15.196C7.80089 15.155 7.74089 15.081 7.69389 15.037C7.71389 14.999 7.78589 14.98 7.74989 14.922H7.79289V14.661H6.88089V14.922H6.91989C6.88289 14.981 6.95889 15 6.97689 15.037C6.92989 15.079 6.86889 15.155 6.96289 15.196V16.069C6.31889 16.202 6.35189 16.817 6.96289 17.014V17.364C6.37289 17.518 6.54789 17.931 6.76989 18.26L6.82689 18.313C6.94989 18.21 6.96289 18.003 6.85789 17.884C6.88989 17.866 6.92489 17.848 6.96289 17.831V18.763C6.90789 18.781 6.89389 18.856 6.94189 18.889C6.94689 18.953 6.88289 18.978 6.82889 18.97C6.82889 18.996 6.82889 19.206 6.82889 19.238C6.78389 19.262 6.71589 19.269 6.65889 19.266V19.667V19.882C7.11789 19.814 7.55389 19.814 8.01089 19.882V19.696V19.588V19.481V19.374V19.266C7.95489 19.268 7.88689 19.262 7.84189 19.238C7.84189 19.205 7.84189 18.997 7.84189 18.969C7.78689 18.977 7.72289 18.951 7.72889 18.886C7.77389 18.852 7.75889 18.779 7.70489 18.762V17.472C8.12589 17.28 8.08789 16.7 7.70489 16.672V16.448C8.27989 16.483 8.50089 16.762 8.35789 16.056L8.35989 16.058Z" fill="#9B8028"/>
<path d="M12.53 14.533H8.25L8.253 17.105V18.59C8.253 19.022 8.479 19.412 8.844 19.609C9.317 19.861 9.868 20 10.396 20C10.924 20 11.46 19.865 11.94 19.609C12.304 19.412 12.531 19.022 12.531 18.59L12.53 14.533Z" fill="#A0251E"/>
</svg>
