<svg width="16" height="16" viewBox="0 0 16 16" fill="none" xmlns="http://www.w3.org/2000/svg">
<g clip-path="url(#clip0_2002_1369)">
<path d="M15.5131 6.27935C14.4791 4.59535 12.1271 1.77002 7.99906 1.77002C3.87106 1.77002 1.51906 4.59535 0.485058 6.27935C0.16541 6.79636 -0.00390625 7.39218 -0.00390625 8.00002C-0.00390625 8.60786 0.16541 9.20368 0.485058 9.72069C1.51906 11.4047 3.87106 14.23 7.99906 14.23C12.1271 14.23 14.4791 11.4047 15.5131 9.72069C15.8327 9.20368 16.002 8.60786 16.002 8.00002C16.002 7.39218 15.8327 6.79636 15.5131 6.27935ZM14.3764 9.02269C13.4884 10.4667 11.4784 12.8967 7.99906 12.8967C4.51972 12.8967 2.50972 10.4667 1.62172 9.02269C1.43181 8.71538 1.33122 8.36127 1.33122 8.00002C1.33122 7.63877 1.43181 7.28466 1.62172 6.97735C2.50972 5.53335 4.51972 3.10335 7.99906 3.10335C11.4784 3.10335 13.4884 5.53069 14.3764 6.97735C14.5663 7.28466 14.6669 7.63877 14.6669 8.00002C14.6669 8.36127 14.5663 8.71538 14.3764 9.02269Z" fill="#FC5C5C"/>
<path d="M8.0013 4.66675C7.34203 4.66675 6.69757 4.86224 6.1494 5.22852C5.60124 5.59479 5.174 6.11538 4.92171 6.72447C4.66941 7.33356 4.6034 8.00378 4.73202 8.65038C4.86064 9.29699 5.17811 9.89093 5.64428 10.3571C6.11046 10.8233 6.7044 11.1407 7.351 11.2694C7.99761 11.398 8.66783 11.332 9.27692 11.0797C9.886 10.8274 10.4066 10.4001 10.7729 9.85198C11.1391 9.30382 11.3346 8.65935 11.3346 8.00008C11.3336 7.11635 10.982 6.26912 10.3572 5.64423C9.73226 5.01934 8.88503 4.66781 8.0013 4.66675ZM8.0013 10.0001C7.60574 10.0001 7.21906 9.88278 6.89016 9.66302C6.56126 9.44326 6.30492 9.1309 6.15354 8.76545C6.00217 8.4 5.96256 7.99786 6.03973 7.6099C6.1169 7.22194 6.30738 6.86557 6.58709 6.58587C6.86679 6.30616 7.22316 6.11568 7.61112 6.03851C7.99909 5.96134 8.40122 6.00095 8.76667 6.15232C9.13212 6.3037 9.44448 6.56004 9.66424 6.88894C9.88401 7.21784 10.0013 7.60452 10.0013 8.00008C10.0013 8.53051 9.79059 9.03922 9.41552 9.4143C9.04044 9.78937 8.53174 10.0001 8.0013 10.0001Z" fill="#FC5C5C"/>
</g>
<defs>
<clipPath id="clip0_2002_1369">
<rect width="16" height="16" fill="white"/>
</clipPath>
</defs>
</svg>
