<svg width="18" height="18" viewBox="0 0 18 18" fill="none" xmlns="http://www.w3.org/2000/svg">
<path d="M3.94703 0.5625C4.26296 0.5625 4.51907 0.826056 4.51907 1.15116V2.6032L5.83144 2.3331C7.09032 2.074 8.39525 2.19729 9.58721 2.68794L9.74258 2.75188C10.9332 3.24201 12.2438 3.33354 13.4879 3.01346C14.0656 2.86487 14.625 3.3144 14.625 3.92705V9.7093C14.625 10.215 14.2906 10.6558 13.8138 10.7785L13.6503 10.8205C12.3006 11.1678 10.8789 11.0685 9.58721 10.5368C8.39525 10.0461 7.09032 9.92287 5.83144 10.182L4.51907 10.452V16.8488C4.51907 17.1739 4.26296 17.4375 3.94703 17.4375C3.63111 17.4375 3.375 17.1739 3.375 16.8488V1.15116C3.375 0.826056 3.63111 0.5625 3.94703 0.5625Z" fill="black"/>
</svg>
