<svg width="32" height="32" viewBox="0 0 32 32" fill="none" xmlns="http://www.w3.org/2000/svg">
<path d="M27 4H5C2.79086 4 1 5.79086 1 8V24C1 26.2091 2.79086 28 5 28H27C29.2091 28 31 26.2091 31 24V8C31 5.79086 29.2091 4 27 4Z" fill="white"/>
<path d="M1.24219 6.67H30.7542C30.2042 5.118 28.7382 4 26.9982 4H4.99819C3.25819 4 1.79219 5.118 1.24219 6.67Z" fill="#295CAB"/>
<path d="M1 9.33997H31V12.01H1V9.33997Z" fill="#295CAB"/>
<path d="M1 14.6801H31V17.3501H1V14.6801Z" fill="#295CAB"/>
<path d="M1 20.02H31V22.69H1V20.02Z" fill="#295CAB"/>
<path d="M1.25391 25.36C1.81191 26.896 3.27191 28 5.00091 28H27.0009C28.7299 28 30.1889 26.896 30.7479 25.36H1.25391Z" fill="#295CAB"/>
<path d="M14.35 4H5C2.791 4 1 5.791 1 8V17.35H14.35V4Z" fill="#295CAB"/>
<path d="M1 9.33997H14.35V12.01H1V9.33997Z" fill="white"/>
<path d="M9.01172 4V17.35H6.34172L6.34172 4H9.01172Z" fill="white"/>
<path opacity="0.15" d="M27 4H5C2.791 4 1 5.791 1 8V24C1 26.209 2.791 28 5 28H27C29.209 28 31 26.209 31 24V8C31 5.791 29.209 4 27 4ZM30 24C30 25.654 28.654 27 27 27H5C3.346 27 2 25.654 2 24V8C2 6.346 3.346 5 5 5H27C28.654 5 30 6.346 30 8V24Z" fill="black"/>
<path opacity="0.2" d="M27 5H5C3.343 5 2 6.343 2 8V9C2 7.343 3.343 6 5 6H27C28.657 6 30 7.343 30 9V8C30 6.343 28.657 5 27 5Z" fill="white"/>
</svg>
