<svg width="18" height="17" viewBox="0 0 18 17" fill="none" xmlns="http://www.w3.org/2000/svg">
<path d="M13.1247 0.437744C12.2802 0.45088 11.4541 0.686634 10.7298 1.1212C10.0055 1.55576 9.40874 2.17375 8.99972 2.91274C8.5907 2.17375 7.99392 1.55576 7.26965 1.1212C6.54538 0.686634 5.71926 0.45088 4.87472 0.437744C3.52843 0.496237 2.26 1.08518 1.34656 2.07592C0.433119 3.06665 -0.0510883 4.37864 -0.000275423 5.72524C-0.000275423 9.13549 3.58922 12.86 6.59972 15.3852C7.27189 15.9501 8.12174 16.2598 8.99972 16.2598C9.87771 16.2598 10.7276 15.9501 11.3997 15.3852C14.4102 12.86 17.9997 9.13549 17.9997 5.72524C18.0505 4.37864 17.5663 3.06665 16.6529 2.07592C15.7394 1.08518 14.471 0.496237 13.1247 0.437744Z" fill="white"/>
</svg>
