<svg width="18" height="18" viewBox="0 0 18 18" fill="none" xmlns="http://www.w3.org/2000/svg">
<g clip-path="url(#clip0_2099_32955)">
<path d="M13.1247 1.43774C12.2802 1.45088 11.4541 1.68663 10.7298 2.1212C10.0055 2.55576 9.40874 3.17375 8.99972 3.91274C8.5907 3.17375 7.99392 2.55576 7.26965 2.1212C6.54538 1.68663 5.71926 1.45088 4.87472 1.43774C3.52843 1.49624 2.26 2.08518 1.34656 3.07592C0.433119 4.06665 -0.0510883 5.37864 -0.000275423 6.72524C-0.000275423 10.1355 3.58922 13.86 6.59972 16.3852C7.27189 16.9501 8.12174 17.2598 8.99972 17.2598C9.87771 17.2598 10.7276 16.9501 11.3997 16.3852C14.4102 13.86 17.9997 10.1355 17.9997 6.72524C18.0505 5.37864 17.5663 4.06665 16.6529 3.07592C15.7394 2.08518 14.471 1.49624 13.1247 1.43774Z" fill="#FC5C5C"/>
</g>
<defs>
<clipPath id="clip0_2099_32955">
<rect width="18" height="18" fill="white"/>
</clipPath>
</defs>
</svg>
