<svg width="20" height="20" viewBox="0 0 20 20" fill="none" xmlns="http://www.w3.org/2000/svg">
<g clip-path="url(#clip0_2057_8604)">
<path fill-rule="evenodd" clip-rule="evenodd" d="M0.523039 5.82332C0.00390625 6.77174 0.00390625 7.9158 0.00390625 10.2039V11.7248C0.00390625 15.6251 0.00390625 17.5754 1.17532 18.787C2.34675 19.9987 4.23211 19.9987 8.00286 19.9987H12.0023C15.7731 19.9987 17.6585 19.9987 18.8299 18.787C20.0013 17.5754 20.0013 15.6251 20.0013 11.7248V10.2039C20.0013 7.9158 20.0013 6.77174 19.4822 5.82332C18.963 4.87492 18.0147 4.28629 16.1178 3.10906L14.1181 1.86797C12.1129 0.623552 11.1104 0.00134277 10.0026 0.00134277C8.89485 0.00134277 7.89227 0.623552 5.88717 1.86797L3.88743 3.10907C1.9906 4.28629 1.04217 4.87492 0.523039 5.82332ZM6.25 15.9992C6.25 15.5851 6.58575 15.2493 6.9999 15.2493H12.9991C13.4133 15.2493 13.749 15.5851 13.749 15.9992C13.749 16.4134 13.4133 16.7491 12.9991 16.7491H6.9999C6.58575 16.7491 6.25 16.4134 6.25 15.9992Z" fill="#FC5C5C"/>
</g>
<defs>
<clipPath id="clip0_2057_8604">
<rect width="20" height="20" fill="white"/>
</clipPath>
</defs>
</svg>
