<svg width="32" height="32" viewBox="0 0 32 32" fill="none" xmlns="http://www.w3.org/2000/svg">
<path d="M1 11H31V21H1V11Z" fill="white"/>
<path d="M5 4H27C29.208 4 31 5.792 31 8V12H1V8C1 5.792 2.792 4 5 4Z" fill="#EA3323"/>
<path d="M27 28L5 28C2.792 28 1 26.208 1 24V20L31 20V24C31 26.208 29.208 28 27 28Z" fill="#100E91"/>
<path opacity="0.15" d="M27 4H5C2.791 4 1 5.791 1 8V24C1 26.209 2.791 28 5 28H27C29.209 28 31 26.209 31 24V8C31 5.791 29.209 4 27 4ZM30 24C30 25.654 28.654 27 27 27H5C3.346 27 2 25.654 2 24V8C2 6.346 3.346 5 5 5H27C28.654 5 30 6.346 30 8V24Z" fill="black"/>
<path d="M15.9992 22C18.5232 22 20.5892 19.935 20.5892 17.41V11.956H11.4102V17.41C11.4102 19.934 13.4752 22 16.0002 22H15.9992Z" fill="#EA3323"/>
<path d="M16.002 21.926C18.478 21.926 20.504 19.9 20.504 17.424V12.044H11.5V17.424C11.5 19.9 13.526 21.926 16.002 21.926Z" fill="white"/>
<path d="M13.3971 12.214H11.6641V14.118H13.3971V12.214Z" fill="#EA3323"/>
<path d="M13.3984 16.021H15.1314V14.117H13.3984V16.021Z" fill="#EA3323"/>
<path d="M11.668 17.414C11.668 17.587 11.679 17.757 11.699 17.925H13.401V16.021H11.668V17.414Z" fill="#EA3323"/>
<path d="M16.8658 16.021H15.1328V17.925H16.8658V16.021Z" fill="#EA3323"/>
<path d="M16.8633 19.828H18.5963V17.924H16.8633V19.828Z" fill="#FF0000"/>
<path d="M18.5977 20.87C18.9817 20.58 19.3167 20.228 19.5867 19.829H18.5977V20.87Z" fill="#EA3323"/>
<path d="M13.3984 19.828H15.1314V17.924H13.3984V19.828Z" fill="#EA3323"/>
<path d="M12.4102 19.828C12.6812 20.228 13.0162 20.58 13.4012 20.871V19.828H12.4102Z" fill="#EA3323"/>
<path d="M16.3008 21.732C16.4928 21.719 16.6808 21.693 16.8658 21.655V19.828H15.1328V21.655C15.3168 21.693 15.5048 21.718 15.6958 21.732C15.8978 21.744 16.0998 21.744 16.3008 21.732Z" fill="#EA3323"/>
<path d="M20.2977 17.925C20.3177 17.757 20.3287 17.586 20.3287 17.412V16.021H18.5977V17.925H20.2977Z" fill="#EA3323"/>
<path d="M16.8633 16.021H18.5963V14.117H16.8633V16.021Z" fill="#EA3323"/>
<path d="M16.8658 12.214H15.1328V14.118H16.8658V12.214Z" fill="#EA3323"/>
<path d="M20.3287 14.117V12.213H18.5977V14.117H20.3287Z" fill="#EA3323"/>
<path d="M20.427 11.9L21.501 9.46499L20.683 8.14298L19.327 8.64499L18.375 7.55699L17.12 8.27599L16.001 7.35999L14.882 8.27599L13.627 7.55699L12.675 8.64499L11.319 8.14298L10.5 9.46499L11.573 11.901C12.925 11.289 14.424 10.948 16 10.948C17.576 10.948 19.074 11.289 20.426 11.9H20.427Z" fill="white"/>
<path d="M12.7055 8.75302L12.7035 8.75502L11.3585 8.25702L10.6055 9.47202L10.8935 10.127L11.6235 11.785C12.1685 11.544 12.7375 11.346 13.3245 11.197L12.7055 8.75302Z" fill="#0093DD"/>
<path d="M14.8911 8.38703L14.8891 8.38903L13.6451 7.67603L12.7031 8.75303L13.3231 11.197C13.8991 11.05 14.4921 10.95 15.1001 10.9L14.8921 8.38703H14.8911Z" fill="#100E91"/>
<path d="M17.1135 8.38799L17.1105 8.39L16.0015 7.48199L14.8945 8.38899L15.1025 10.902C15.3985 10.878 15.6985 10.864 16.0015 10.864C16.3045 10.864 16.6065 10.877 16.9045 10.902L17.1135 8.38899V8.38799Z" fill="#0093DD"/>
<path d="M19.2993 8.75402H19.2963L18.3523 7.67603L17.1113 8.38703L16.9023 10.9C17.5103 10.95 18.1033 11.051 18.6793 11.197L19.3003 8.75303L19.2993 8.75402Z" fill="#100E91"/>
<path d="M20.3757 11.785L21.3957 9.47299L20.6427 8.258L19.3007 8.755L18.6797 11.199C19.2647 11.348 19.8317 11.546 20.3747 11.786L20.3757 11.785Z" fill="#0093DD"/>
<path opacity="0.2" d="M27 5H5C3.343 5 2 6.343 2 8V9C2 7.343 3.343 6 5 6H27C28.657 6 30 7.343 30 9V8C30 6.343 28.657 5 27 5Z" fill="white"/>
</svg>
