<svg width="32" height="32" viewBox="0 0 32 32" fill="none" xmlns="http://www.w3.org/2000/svg">
<path d="M1 11H31V21H1V11Z" fill="white"/>
<path d="M5 4H27C29.208 4 31 5.792 31 8V12H1V8C1 5.792 2.792 4 5 4Z" fill="#E06535"/>
<path d="M27 28L5 28C2.792 28 1 26.208 1 24V20L31 20V24C31 26.208 29.208 28 27 28Z" fill="#2C6837"/>
<path opacity="0.15" d="M27 4H5C2.791 4 1 5.791 1 8V24C1 26.209 2.791 28 5 28H27C29.209 28 31 26.209 31 24V8C31 5.791 29.209 4 27 4ZM30 24C30 25.654 28.654 27 27 27H5C3.346 27 2 25.654 2 24V8C2 6.346 3.346 5 5 5H27C28.654 5 30 6.346 30 8V24Z" fill="black"/>
<path d="M16.001 12.292C13.953 12.292 12.293 13.952 12.293 16C12.293 18.048 13.953 19.708 16.001 19.708C18.049 19.708 19.709 18.048 19.709 16C19.709 13.952 18.049 12.292 16.001 12.292ZM19.042 16.401C19.032 16.477 19.084 16.546 19.159 16.558C19.126 16.744 19.079 16.925 19.016 17.098C18.945 17.07 18.864 17.104 18.835 17.175C18.806 17.246 18.839 17.326 18.908 17.357C18.868 17.442 18.825 17.524 18.778 17.605L17.167 16.536L16.575 16.287C16.588 16.261 16.599 16.234 16.609 16.206L17.204 16.448L19.099 16.831L17.266 16.215L16.63 16.128C16.636 16.1 16.639 16.071 16.641 16.041L17.279 16.121L19.209 16.001L17.279 15.881L16.641 15.961C16.639 15.931 16.636 15.902 16.63 15.874L17.266 15.787L19.099 15.171L17.204 15.554L16.609 15.796C16.6 15.768 16.588 15.741 16.575 15.715L17.167 15.466L18.778 14.397C18.825 14.478 18.868 14.56 18.908 14.645C18.838 14.676 18.805 14.756 18.835 14.827C18.864 14.898 18.945 14.932 19.016 14.904C19.079 15.077 19.127 15.258 19.159 15.444C19.084 15.456 19.032 15.525 19.042 15.601C19.052 15.677 19.12 15.73 19.196 15.722C19.204 15.814 19.209 15.907 19.209 16.001C19.209 16.095 19.204 16.188 19.196 16.28C19.121 16.272 19.052 16.325 19.042 16.401ZM18.458 13.939C18.399 13.987 18.388 14.073 18.435 14.133C18.481 14.193 18.567 14.205 18.629 14.161C18.682 14.237 18.732 14.316 18.778 14.397L17.048 15.258L16.536 15.646C16.52 15.622 16.502 15.599 16.482 15.577L16.99 15.183L18.27 13.733L16.82 15.013L16.426 15.521C16.404 15.502 16.381 15.483 16.357 15.467L16.745 14.955L17.606 13.224C17.687 13.271 17.766 13.321 17.842 13.374C17.797 13.435 17.809 13.521 17.87 13.568C17.931 13.614 18.017 13.604 18.064 13.545C18.135 13.605 18.205 13.668 18.271 13.734C18.337 13.8 18.4 13.869 18.46 13.941L18.458 13.939ZM16.281 12.806C16.273 12.881 16.326 12.95 16.402 12.96C16.478 12.97 16.547 12.918 16.559 12.843C16.745 12.876 16.926 12.923 17.099 12.986C17.071 13.057 17.105 13.138 17.176 13.167C17.247 13.196 17.327 13.163 17.358 13.094C17.443 13.134 17.525 13.177 17.606 13.224L16.537 14.835L16.288 15.427C16.262 15.414 16.235 15.403 16.207 15.393L16.449 14.798L16.832 12.903L16.216 14.736L16.129 15.372C16.101 15.366 16.072 15.363 16.042 15.361L16.122 14.723L16.002 12.793L15.882 14.723L15.962 15.361C15.932 15.363 15.903 15.366 15.875 15.372L15.788 14.736L15.172 12.903L15.555 14.798L15.797 15.393C15.769 15.402 15.742 15.414 15.716 15.427L15.467 14.835L14.398 13.224C14.479 13.177 14.561 13.134 14.646 13.094C14.677 13.164 14.757 13.197 14.828 13.167C14.899 13.138 14.933 13.057 14.905 12.986C15.078 12.923 15.259 12.875 15.445 12.843C15.457 12.918 15.526 12.97 15.602 12.96C15.678 12.95 15.731 12.882 15.723 12.806C15.815 12.798 15.908 12.793 16.002 12.793C16.096 12.793 16.189 12.798 16.281 12.806ZM13.168 17.174C13.139 17.103 13.058 17.069 12.987 17.097C12.924 16.924 12.876 16.743 12.844 16.557C12.919 16.545 12.971 16.476 12.961 16.4C12.951 16.324 12.883 16.271 12.807 16.279C12.799 16.187 12.794 16.094 12.794 16C12.794 15.906 12.799 15.813 12.807 15.721C12.882 15.729 12.951 15.676 12.961 15.6C12.971 15.524 12.919 15.455 12.844 15.443C12.877 15.257 12.924 15.076 12.987 14.903C13.058 14.931 13.139 14.897 13.168 14.826C13.197 14.755 13.164 14.675 13.095 14.644C13.135 14.559 13.178 14.477 13.225 14.396L14.836 15.465L15.428 15.714C15.415 15.74 15.404 15.767 15.394 15.795L14.799 15.553L12.904 15.17L14.737 15.786L15.373 15.873C15.367 15.901 15.364 15.93 15.362 15.96L14.724 15.88L12.794 16L14.724 16.12L15.362 16.04C15.364 16.07 15.367 16.099 15.373 16.127L14.737 16.214L12.904 16.83L14.799 16.447L15.394 16.205C15.403 16.233 15.415 16.26 15.428 16.286L14.836 16.535L13.225 17.604C13.178 17.523 13.135 17.441 13.095 17.356C13.165 17.325 13.198 17.245 13.168 17.174ZM13.94 13.544C13.988 13.603 14.074 13.614 14.134 13.567C14.194 13.521 14.206 13.435 14.162 13.373C14.238 13.32 14.317 13.269 14.398 13.223L15.259 14.954L15.647 15.466C15.623 15.482 15.6 15.5 15.578 15.52L15.184 15.012L13.734 13.732L15.014 15.182L15.522 15.576C15.503 15.598 15.484 15.621 15.468 15.645L14.956 15.257L13.225 14.396C13.272 14.315 13.322 14.236 13.375 14.16C13.436 14.205 13.522 14.193 13.569 14.132C13.615 14.071 13.605 13.985 13.546 13.938C13.606 13.867 13.669 13.797 13.735 13.731C13.801 13.665 13.87 13.602 13.942 13.542L13.94 13.544ZM13.545 18.062C13.604 18.014 13.615 17.928 13.568 17.868C13.522 17.808 13.436 17.796 13.374 17.84C13.321 17.764 13.27 17.685 13.224 17.604L14.955 16.743L15.467 16.355C15.483 16.379 15.501 16.402 15.521 16.424L15.013 16.818L13.733 18.268L15.183 16.988L15.577 16.48C15.599 16.499 15.622 16.518 15.646 16.534L15.258 17.046L14.397 18.777C14.316 18.73 14.237 18.68 14.161 18.627C14.206 18.566 14.194 18.48 14.133 18.433C14.072 18.387 13.986 18.397 13.939 18.456C13.868 18.396 13.798 18.333 13.732 18.267C13.666 18.201 13.603 18.132 13.543 18.06L13.545 18.062ZM15.722 19.195C15.73 19.12 15.677 19.051 15.601 19.041C15.525 19.031 15.456 19.083 15.444 19.158C15.258 19.125 15.077 19.078 14.904 19.015C14.932 18.944 14.898 18.863 14.827 18.834C14.756 18.805 14.676 18.838 14.645 18.907C14.56 18.867 14.478 18.824 14.397 18.777L15.466 17.166L15.715 16.574C15.741 16.587 15.768 16.598 15.796 16.608L15.554 17.203L15.171 19.098L15.787 17.265L15.874 16.629C15.902 16.635 15.931 16.638 15.961 16.64L15.881 17.278L16.001 19.208L16.121 17.278L16.041 16.64C16.071 16.638 16.1 16.635 16.128 16.629L16.215 17.265L16.831 19.098L16.448 17.203L16.206 16.608C16.234 16.599 16.261 16.587 16.287 16.574L16.536 17.166L17.605 18.777C17.524 18.824 17.442 18.867 17.357 18.907C17.326 18.837 17.246 18.804 17.175 18.834C17.104 18.863 17.07 18.944 17.098 19.015C16.925 19.078 16.744 19.126 16.558 19.158C16.546 19.083 16.477 19.031 16.401 19.041C16.325 19.051 16.272 19.119 16.28 19.195C16.188 19.203 16.095 19.208 16.001 19.208C15.907 19.208 15.814 19.203 15.722 19.195ZM18.063 18.457C18.015 18.398 17.929 18.387 17.869 18.434C17.809 18.48 17.797 18.566 17.841 18.628C17.765 18.681 17.686 18.731 17.605 18.777L16.744 17.047L16.356 16.535C16.38 16.519 16.403 16.501 16.425 16.481L16.819 16.989L18.269 18.269L16.989 16.819L16.481 16.425C16.5 16.403 16.519 16.38 16.535 16.356L17.047 16.744L18.778 17.605C18.731 17.686 18.681 17.765 18.628 17.841C18.567 17.796 18.481 17.808 18.434 17.869C18.388 17.93 18.398 18.016 18.457 18.063C18.397 18.134 18.334 18.204 18.268 18.27C18.202 18.336 18.133 18.399 18.061 18.459L18.063 18.457Z" fill="#2C2C6B"/>
<path opacity="0.2" d="M27 5H5C3.343 5 2 6.343 2 8V9C2 7.343 3.343 6 5 6H27C28.657 6 30 7.343 30 9V8C30 6.343 28.657 5 27 5Z" fill="white"/>
</svg>
