<svg width="19" height="18" viewBox="0 0 19 18" fill="none" xmlns="http://www.w3.org/2000/svg">
<path fill-rule="evenodd" clip-rule="evenodd" d="M9.5 17.4375C5.78769 17.4375 3.93153 17.4375 2.77827 16.2018C1.625 14.9662 1.625 12.9774 1.625 9C1.625 5.02252 1.625 3.03378 2.77827 1.79815C3.93153 0.5625 5.78769 0.5625 9.5 0.5625C13.2123 0.5625 15.0685 0.5625 16.2217 1.79815C17.375 3.03378 17.375 5.02252 17.375 9C17.375 12.9774 17.375 14.9662 16.2217 16.2018C15.0685 17.4375 13.2123 17.4375 9.5 17.4375ZM9.5 13.8516C9.82618 13.8516 10.0906 13.5682 10.0906 13.2188V8.15625C10.0906 7.80677 9.82618 7.52344 9.5 7.52344C9.17382 7.52344 8.90938 7.80677 8.90938 8.15625V13.2188C8.90938 13.5682 9.17382 13.8516 9.5 13.8516ZM9.5 4.78125C9.93494 4.78125 10.2875 5.15901 10.2875 5.625C10.2875 6.09099 9.93494 6.46875 9.5 6.46875C9.06506 6.46875 8.7125 6.09099 8.7125 5.625C8.7125 5.15901 9.06506 4.78125 9.5 4.78125Z" fill="black"/>
</svg>
