<svg width="18" height="18" viewBox="0 0 18 18" fill="none" xmlns="http://www.w3.org/2000/svg">
<g clip-path="url(#clip0_2099_32963)">
<path d="M6.05692 0.562506H11.9464C12.1426 0.562456 12.2929 0.562422 12.4244 0.575281C13.3591 0.666718 14.1242 1.22871 14.4486 1.98572H3.55469C3.87912 1.22871 4.6442 0.666718 5.57892 0.575281C5.71038 0.562422 5.86077 0.562456 6.05692 0.562506Z" fill="#FC5C5C"/>
<path d="M4.19841 2.86017C3.02507 2.86017 2.06297 3.56871 1.7419 4.50868C1.73521 4.52827 1.72879 4.54797 1.72266 4.56776C2.0586 4.46603 2.40822 4.39956 2.76214 4.3542C3.67371 4.23733 4.82572 4.23739 6.16393 4.23746H11.9791C13.3173 4.23739 14.4694 4.23733 15.381 4.3542C15.7348 4.39956 16.0845 4.46603 16.4204 4.56776C16.4143 4.54797 16.4079 4.52827 16.4011 4.50868C16.0801 3.56871 15.118 2.86017 13.9446 2.86017H4.19841Z" fill="#FC5C5C"/>
<path fill-rule="evenodd" clip-rule="evenodd" d="M11.8077 5.23853H6.19233C3.34483 5.23853 1.92108 5.23853 1.12133 6.07116C0.321584 6.9038 0.509749 8.19018 0.886087 10.763L1.24297 13.2027C1.53809 15.2204 1.68566 16.2292 2.44266 16.8333C3.19967 17.4374 4.31618 17.4374 6.54919 17.4374H11.4508C13.6838 17.4374 14.8004 17.4374 15.5574 16.8333C16.3144 16.2292 16.4619 15.2204 16.757 13.2027L17.1139 10.763C17.4902 8.19027 17.6784 6.90379 16.8787 6.07116C16.0789 5.23853 14.6551 5.23853 11.8077 5.23853ZM11.1779 12.2013C11.649 11.9093 11.649 11.1531 11.1779 10.8611L8.3331 9.09747C7.8752 8.81363 7.3125 9.18311 7.3125 9.76766V13.2947C7.3125 13.8792 7.8752 14.2487 8.3331 13.9649L11.1779 12.2013Z" fill="#FC5C5C"/>
</g>
<defs>
<clipPath id="clip0_2099_32963">
<rect width="18" height="18" fill="white"/>
</clipPath>
</defs>
</svg>
