<svg width="18" height="18" viewBox="0 0 18 18" fill="none" xmlns="http://www.w3.org/2000/svg">
<g clip-path="url(#clip0_2091_28911)">
<path fill-rule="evenodd" clip-rule="evenodd" d="M0 9.01817V15.8753C0 16.8225 0.805505 17.5716 1.80001 17.5716H3.6V7.28588H1.80001C0.805505 7.28588 0 8.07102 0 9.01817ZM17.9361 10.1616L16.3719 15.763C16.1145 16.8267 15.12 17.5716 13.9734 17.5716H5.4V7.30388L6.9471 1.99387C7.1298 0.865016 8.361 0.107296 9.6084 0.563296C10.3545 0.836725 10.8 1.57643 10.8 2.33843V6.44674C10.8 6.91988 11.2032 7.28588 11.7 7.28588H15.5376C17.1207 7.28588 18.2916 8.6933 17.9361 10.1616Z" fill="black"/>
</g>
<defs>
<clipPath id="clip0_2091_28911">
<rect width="18" height="18" fill="white"/>
</clipPath>
</defs>
</svg>
