<svg width="16" height="16" viewBox="0 0 16 16" fill="none" xmlns="http://www.w3.org/2000/svg">
<path d="M15.1793 5.96386C14.8667 5.59614 14.4804 5.30126 14.0465 5.09921C13.6127 4.89716 13.1413 4.79265 12.6644 4.79275H10.0055L10.2295 3.40389C10.3088 2.9148 10.2131 2.41292 9.96013 1.9898C9.70712 1.56668 9.31355 1.25051 8.85122 1.09895C8.38889 0.947392 7.88859 0.970549 7.44159 1.1642C6.99459 1.35785 6.63066 1.70908 6.41619 2.15384L5.14042 4.79275H3.33274C2.44917 4.79383 1.60209 5.15265 0.977306 5.79049C0.352525 6.42833 0.00105838 7.29312 0 8.19517L0 11.5976C0.00105838 12.4996 0.352525 13.3644 0.977306 14.0023C1.60209 14.6401 2.44917 14.9989 3.33274 15H12.1978C13 14.9966 13.7743 14.6994 14.38 14.1624C14.9856 13.6254 15.3823 12.8843 15.4979 12.0739L15.9678 8.67151C16.034 8.18886 15.9978 7.69734 15.8618 7.2302C15.7258 6.76305 15.493 6.3312 15.1793 5.96386ZM1.3331 11.5976V8.19517C1.3331 7.65374 1.54377 7.13449 1.91878 6.75165C2.29378 6.3688 2.8024 6.15372 3.33274 6.15372H4.66583V13.639H3.33274C2.8024 13.639 2.29378 13.424 1.91878 13.0411C1.54377 12.6583 1.3331 12.139 1.3331 11.5976ZM14.6447 8.48029L14.1741 11.8827C14.1053 12.3686 13.868 12.8131 13.5053 13.1354C13.1426 13.4577 12.6787 13.6364 12.1978 13.639H5.99893V5.97271C6.06175 5.91684 6.11375 5.84944 6.15224 5.77401L7.61131 2.75607C7.66603 2.65531 7.74338 2.56924 7.83702 2.50494C7.93066 2.44064 8.03791 2.39995 8.14995 2.3862C8.26199 2.37245 8.37563 2.38604 8.48153 2.42585C8.58742 2.46566 8.68256 2.53056 8.7591 2.61521C8.82459 2.69295 8.87247 2.78449 8.89931 2.8833C8.92616 2.9821 8.93131 3.08574 8.91441 3.18681L8.56247 5.36436C8.54702 5.46166 8.55247 5.56122 8.57842 5.65615C8.60437 5.75109 8.65022 5.83914 8.71278 5.91421C8.77535 5.98928 8.85314 6.04958 8.94078 6.09093C9.02842 6.13228 9.12381 6.15371 9.22036 6.15372H12.6644C12.9506 6.15368 13.2335 6.21637 13.494 6.33755C13.7544 6.45873 13.9863 6.63558 14.1741 6.85614C14.3618 7.0767 14.501 7.33584 14.5822 7.61603C14.6634 7.89623 14.6847 8.19095 14.6447 8.48029Z" fill="#FC5C5C"/>
</svg>
