<svg width="32" height="32" viewBox="0 0 32 32" fill="none" xmlns="http://www.w3.org/2000/svg">
<path d="M27 28L15 28L15 4L27 4C29.208 4 31 5.792 31 8L31 24C31 26.208 29.208 28 27 28Z" fill="#BF2C30"/>
<path d="M5 4H16V28H5C2.792 28 1 26.208 1 24V8C1 5.792 2.792 4 5 4Z" fill="white"/>
<path opacity="0.15" d="M27 4H5C2.791 4 1 5.791 1 8V24C1 26.209 2.791 28 5 28H27C29.209 28 31 26.209 31 24V8C31 5.791 29.209 4 27 4ZM30 24C30 25.654 28.654 27 27 27H5C3.346 27 2 25.654 2 24V8C2 6.346 3.346 5 5 5H27C28.654 5 30 6.346 30 8V24Z" fill="black"/>
<path opacity="0.2" d="M27 5H5C3.343 5 2 6.343 2 8V9C2 7.343 3.343 6 5 6H27C28.657 6 30 7.343 30 9V8C30 6.343 28.657 5 27 5Z" fill="white"/>
<path d="M8.36531 9.06798C8.36431 9.05898 8.36231 9.04998 8.36131 9.04198C8.31431 8.80098 8.10731 8.61098 7.87331 8.57698V7.00098H6.01231V8.57698C6.00331 8.57798 5.99431 8.57998 5.98631 8.58098C5.74531 8.62798 5.55531 8.83498 5.52131 9.06898H3.94531V10.93H5.52131C5.52231 10.939 5.52431 10.948 5.52531 10.956C5.57231 11.197 5.77931 11.387 6.01331 11.421V12.997H7.87431V11.421C7.88331 11.42 7.89231 11.418 7.90031 11.417C8.14131 11.37 8.33131 11.163 8.36531 10.929H9.94131V9.06798H8.36531Z" fill="white"/>
<path d="M8.12431 13.247H5.76331V11.606C5.57531 11.521 5.42131 11.368 5.33631 11.179H3.69531V8.818H5.33731C5.42131 8.63 5.57431 8.476 5.76331 8.391V6.75H8.12431V8.391C8.31231 8.476 8.46631 8.629 8.55131 8.818H10.1923V11.179H8.55131C8.46731 11.367 8.31331 11.522 8.12431 11.606V13.247ZM6.26331 12.747H7.62431V11.209L7.83331 11.174C7.98531 11.145 8.10031 11.025 8.11931 10.892L8.15031 10.678H9.69131V9.317H8.14231L8.11831 9.099C8.08931 8.955 7.97031 8.842 7.83731 8.822L7.62431 8.791V7.249H6.26331V8.787L6.05431 8.822C5.90331 8.851 5.78831 8.971 5.76931 9.104L5.73831 9.318H4.19631V10.679H5.72131L5.76531 10.875C5.79731 11.04 5.91631 11.154 6.05031 11.174L6.26331 11.205V12.747Z" fill="#BF2C30"/>
</svg>
