<svg width="18" height="18" viewBox="0 0 18 18" fill="none" xmlns="http://www.w3.org/2000/svg">
<path fill-rule="evenodd" clip-rule="evenodd" d="M16.8748 10.3902V6.4485C16.8748 5.39117 16.8229 4.48393 16.6657 3.72585C16.5065 2.95818 16.2289 2.29274 15.7444 1.77364C15.2599 1.25455 14.6388 0.957139 13.9223 0.786533C13.2148 0.618053 12.368 0.5625 11.3812 0.5625H6.61852C5.63169 0.5625 4.78495 0.618053 4.07741 0.786533C3.36094 0.957139 2.73986 1.25455 2.25538 1.77364C1.77091 2.29274 1.49332 2.95818 1.33409 3.72585C1.17685 4.48393 1.125 5.39117 1.125 6.4485V11.5515C1.125 12.6088 1.17685 13.5161 1.33409 14.2741C1.49332 15.0418 1.77091 15.7073 2.25538 16.2264C2.73986 16.7455 3.36094 17.0429 4.07741 17.2135C4.78495 17.382 5.63169 17.4375 6.61852 17.4375H11.3812C12.368 17.4375 13.2148 17.382 13.9223 17.2135C14.6388 17.0429 15.2599 16.7455 15.7444 16.2264C16.2289 15.7073 16.5065 15.0418 16.6657 14.2741C16.8229 13.5161 16.8748 12.6088 16.8748 11.5515V10.4295C16.8751 10.4164 16.8751 10.4033 16.8748 10.3902ZM2.87155 4.09195C2.75195 4.66857 2.69998 5.42968 2.69998 6.4485V8.23725C3.26687 7.65321 3.79459 7.17537 4.30563 6.82695C4.92484 6.40477 5.56029 6.14453 6.24545 6.14453C6.9306 6.14453 7.56602 6.40477 8.1853 6.82695C8.79679 7.24386 9.43213 7.84609 10.1299 8.59373L11.4098 9.96508C12.1842 9.28114 12.9435 8.80889 13.7607 8.69979C14.299 8.62791 14.8067 8.71928 15.2998 8.93233V6.4485C15.2998 5.42968 15.2478 4.66857 15.1282 4.09195C15.0106 3.52491 14.8383 3.18932 14.6307 2.96688C14.4231 2.74445 14.1099 2.55986 13.5806 2.43384C13.0425 2.30569 12.3321 2.25 11.3812 2.25H6.61852C5.66763 2.25 4.95727 2.30569 4.4191 2.43384C3.88988 2.55986 3.57666 2.74445 3.36906 2.96688C3.16146 3.18932 2.98917 3.52491 2.87155 4.09195Z" fill="black"/>
<path fill-rule="evenodd" clip-rule="evenodd" d="M10.5 6C10.5 5.17157 11.1716 4.5 12 4.5C12.8284 4.5 13.5 5.17157 13.5 6C13.5 6.82843 12.8284 7.5 12 7.5C11.1716 7.5 10.5 6.82843 10.5 6Z" fill="black"/>
</svg>
