<svg width="20" height="20" viewBox="0 0 20 20" fill="none" xmlns="http://www.w3.org/2000/svg">
<path d="M0.209677 18.5774L5.18384 13.6033C3.82833 11.9454 3.16186 9.83002 3.32231 7.69458C3.48275 5.55913 4.45783 3.56705 6.04586 2.13037C7.63388 0.693699 9.71335 -0.0776494 11.8541 -0.0241229C13.9949 0.0294036 16.0333 0.90371 17.5475 2.41795C19.0617 3.93219 19.9361 5.97052 19.9896 8.11131C20.0431 10.2521 19.2718 12.3316 17.8351 13.9196C16.3984 15.5076 14.4063 16.4827 12.2709 16.6431C10.1354 16.8036 8.02002 16.1371 6.36218 14.7816L1.38801 19.7558C1.23084 19.9076 1.02034 19.9916 0.801844 19.9897C0.583345 19.9878 0.374336 19.9001 0.21983 19.7456C0.0653229 19.5911 -0.0223198 19.3821 -0.0242176 19.1636C-0.0261173 18.9451 0.0578785 18.7346 0.209677 18.5774ZM11.6322 14.9999C12.9507 14.9999 14.2397 14.6089 15.336 13.8764C16.4323 13.1439 17.2868 12.1027 17.7914 10.8845C18.296 9.66632 18.428 8.32588 18.1707 7.03267C17.9135 5.73947 17.2786 4.55158 16.3462 3.61923C15.4139 2.68688 14.226 2.05194 12.9328 1.79471C11.6396 1.53747 10.2991 1.66949 9.08096 2.17408C7.86278 2.67866 6.82159 3.53314 6.08905 4.62947C5.35651 5.7258 4.96551 7.01473 4.96551 8.33327C4.9675 10.1008 5.67051 11.7953 6.92033 13.0451C8.17014 14.2949 9.86468 14.998 11.6322 14.9999Z" fill="white"/>
</svg>
