<svg width="19" height="18" viewBox="0 0 19 18" fill="none" xmlns="http://www.w3.org/2000/svg">
<path fill-rule="evenodd" clip-rule="evenodd" d="M13.8765 10.8747C12.7704 10.8747 11.805 11.4527 11.2495 12.3194L7.90333 10.4073C8.11953 9.98235 8.25262 9.50869 8.25262 9.00004C8.25262 8.68573 8.19202 8.38828 8.10579 8.10209L11.5869 6.11314C12.1574 6.73176 12.9685 7.12543 13.8765 7.12543C15.6024 7.12543 17.0008 5.72696 17.0008 4.00107C17.0008 2.27517 15.6024 0.876709 13.8765 0.876709C12.1506 0.876709 10.7521 2.27517 10.7521 4.00107C10.7521 4.31538 10.8127 4.61281 10.8989 4.89963L7.4178 6.88797C6.84729 6.26997 6.0362 5.87568 5.12826 5.87568C3.40237 5.87568 2.00391 7.27415 2.00391 9.00004C2.00391 10.7259 3.40237 12.1244 5.12826 12.1244C5.84062 12.1244 6.48985 11.8769 7.01537 11.4758L10.7865 13.6616C10.774 13.7741 10.7521 13.8828 10.7521 13.999C10.7521 15.7249 12.1506 17.1234 13.8765 17.1234C15.6024 17.1234 17.0008 15.7249 17.0008 13.999C17.0008 12.2731 15.6024 10.8747 13.8765 10.8747Z" fill="black"/>
</svg>
