<svg width="32" height="32" viewBox="0 0 32 32" fill="none" xmlns="http://www.w3.org/2000/svg">
<path d="M1 11H31V21H1V11Z" fill="#0600F5"/>
<path d="M5 4H27C29.208 4 31 5.792 31 8V12H1V8C1 5.792 2.792 4 5 4Z" fill="white"/>
<path d="M27 28L5 28C2.792 28 1 26.208 1 24V20L31 20V24C31 26.208 29.208 28 27 28Z" fill="#EA3323"/>
<path opacity="0.15" d="M27 4H5C2.791 4 1 5.791 1 8V24C1 26.209 2.791 28 5 28H27C29.209 28 31 26.209 31 24V8C31 5.791 29.209 4 27 4ZM30 24C30 25.654 28.654 27 27 27H5C3.346 27 2 25.654 2 24V8C2 6.346 3.346 5 5 5H27C28.654 5 30 6.346 30 8V24Z" fill="black"/>
<path opacity="0.2" d="M27 5H5C3.343 5 2 6.343 2 8V9C2 7.343 3.343 6 5 6H27C28.657 6 30 7.343 30 9V8C30 6.343 28.657 5 27 5Z" fill="white"/>
<path d="M6.61293 8.56897C8.63193 7.67997 10.9309 7.67997 12.9499 8.56897C13.2809 13.249 12.2249 15.902 9.78193 16.527C7.33893 15.902 6.28193 13.249 6.61293 8.56897Z" fill="#0600F5"/>
<path d="M9.78066 10.646L10.5477 12.18L11.0587 11.498L12.3367 13.203C12.3367 13.282 12.3257 13.361 12.3037 13.437C11.9477 14.682 11.0047 15.674 9.77966 16.093C8.55466 15.674 7.61166 14.682 7.25566 13.437C7.23366 13.361 7.22266 13.282 7.22266 13.203L8.50066 11.498L9.01166 12.18L9.77866 10.646H9.78066Z" fill="white"/>
<path d="M6.37109 8.67997C6.45109 8.64197 6.53109 8.60497 6.61209 8.56897L6.86509 12.613C6.97309 14.341 8.13109 15.826 9.78009 16.353C11.4301 15.826 12.5871 14.341 12.6951 12.613L12.9481 8.56897C13.0291 8.60497 13.1091 8.64197 13.1891 8.67997L12.9421 12.629C12.8261 14.488 11.5641 16.077 9.78009 16.613C7.99609 16.078 6.73409 14.488 6.61809 12.629L6.37109 8.67997Z" fill="#EA3323"/>
</svg>
