<svg width="32" height="32" viewBox="0 0 32 32" fill="none" xmlns="http://www.w3.org/2000/svg">
<path d="M1 11H31V21H1V11Z" fill="#204C9E"/>
<path d="M5 4H27C29.208 4 31 5.792 31 8V12H1V8C1 5.792 2.792 4 5 4Z" fill="white"/>
<path d="M27 28L5 28C2.792 28 1 26.208 1 24V20L31 20V24C31 26.208 29.208 28 27 28Z" fill="#DB362F"/>
<path opacity="0.15" d="M27 4H5C2.791 4 1 5.791 1 8V24C1 26.209 2.791 28 5 28H27C29.209 28 31 26.209 31 24V8C31 5.791 29.209 4 27 4ZM30 24C30 25.654 28.654 27 27 27H5C3.346 27 2 25.654 2 24V8C2 6.346 3.346 5 5 5H27C28.654 5 30 6.346 30 8V24Z" fill="black"/>
<path opacity="0.2" d="M27 5H5C3.343 5 2 6.343 2 8V9C2 7.343 3.343 6 5 6H27C28.657 6 30 7.343 30 9V8C30 6.343 28.657 5 27 5Z" fill="white"/>
<path d="M15.6502 10.2321C15.6502 10.2321 15.8282 12.0161 15.8282 15.5851C15.8032 19.2301 13.0772 21.0751 11.0762 22.0451C9.07522 21.0751 6.35022 19.2301 6.32422 15.5851C6.32422 12.0161 6.50222 10.2321 6.50222 10.2321H15.6502Z" fill="#DB362F"/>
<path d="M10.6733 19.945V15.483C9.16225 15.483 8.73325 15.617 8.28125 15.753C8.32325 15.297 8.32325 14.838 8.28125 14.382C8.73325 14.519 9.16225 14.652 10.6733 14.652V13.412C10.1963 13.412 9.53825 13.431 8.78125 13.689C8.82425 13.232 8.82425 12.772 8.78125 12.315C9.53825 12.569 10.1963 12.589 10.6733 12.589C10.6733 12.23 10.5622 11.457 10.4222 10.817C10.8582 10.856 11.2963 10.856 11.7323 10.817C11.5923 11.456 11.4812 12.229 11.4812 12.589C11.9582 12.589 12.6163 12.57 13.3733 12.315C13.3302 12.772 13.3302 13.232 13.3733 13.689C12.6163 13.431 11.9582 13.412 11.4812 13.412V14.652C12.9922 14.652 13.4212 14.518 13.8733 14.382C13.8313 14.838 13.8313 15.297 13.8733 15.753C13.4212 15.616 12.9922 15.483 11.4812 15.483V19.945H10.6733Z" fill="white"/>
<path d="M11.0778 22.044C12.3188 21.442 13.8388 20.502 14.8198 19.006C14.8128 18.992 14.8088 18.975 14.8028 18.961C14.2428 17.777 13.2268 17.594 12.5348 18.552C12.4458 18.343 12.3438 18.153 12.2308 17.987C11.4258 16.806 10.2578 17.058 9.62184 18.552C9.33484 18.155 8.97684 17.938 8.60784 17.938C8.08984 17.938 7.63484 18.362 7.33984 19.01C8.32184 20.504 9.83784 21.442 11.0778 22.044Z" fill="#204C9E"/>
<path d="M11.0753 22.2351L11.0003 22.1991C9.65234 21.5451 8.61534 20.8041 7.83134 19.9331C6.72834 18.7081 6.16334 17.2461 6.15234 15.5861C6.15234 12.0491 6.32934 10.2331 6.33134 10.2151L6.34634 10.0601H15.8053L15.8203 10.2151C15.8223 10.2331 15.9993 12.0491 15.9993 15.5851C15.9873 17.2461 15.4223 18.7081 14.3203 19.9331C13.5353 20.8041 12.4993 21.5461 11.1513 22.1991L11.0753 22.2351ZM6.65934 10.4041C6.61834 10.9091 6.49534 12.6501 6.49534 15.5851C6.50634 17.1571 7.04134 18.5431 8.08634 19.7031C8.82634 20.5251 9.80434 21.2291 11.0753 21.8541C12.3463 21.2291 13.3243 20.5251 14.0643 19.7031C15.1093 18.5431 15.6443 17.1571 15.6553 15.5841C15.6553 12.6501 15.5333 10.9091 15.4913 10.4041H6.65934Z" fill="white"/>
</svg>
