<svg width="20" height="20" viewBox="0 0 20 20" fill="none" xmlns="http://www.w3.org/2000/svg">
<path d="M9.01816 1.86252C9.43505 1.07236 10.5667 1.07236 10.9836 1.86252L13.142 5.9535C13.3028 6.25822 13.5958 6.47112 13.9353 6.52986L18.4931 7.31846C19.3734 7.47078 19.7231 8.54704 19.1004 9.18771L15.8766 12.5047C15.6365 12.7517 15.5246 13.0962 15.5736 13.4372L16.2321 18.0156C16.3592 18.8999 15.4437 19.5651 14.642 19.1709L10.4912 17.1299C10.182 16.9779 9.81978 16.9779 9.5106 17.1299L5.35978 19.1709C4.55806 19.5651 3.64253 18.8999 3.7697 18.0156L4.42812 13.4372C4.47716 13.0962 4.36523 12.7517 4.12511 12.5047L0.901344 9.18771C0.278682 8.54704 0.628379 7.47078 1.5087 7.31846L6.06644 6.52986C6.40593 6.47112 6.69896 6.25822 6.85973 5.9535L9.01816 1.86252Z" fill="#FC5C5C"/>
</svg>
