<svg width="16" height="16" viewBox="0 0 16 16" fill="none" xmlns="http://www.w3.org/2000/svg">
<path d="M16.0001 2.66658C16.0001 3.07791 15.8401 3.46458 15.5481 3.75591L14.1667 5.13791C14.0367 5.26791 13.8661 5.33324 13.6954 5.33324C13.5247 5.33324 13.3541 5.26791 13.2241 5.13791C12.9634 4.87724 12.9634 4.45591 13.2241 4.19524L14.0854 3.33324H10.0001C9.63139 3.33324 9.33339 3.03524 9.33339 2.66658C9.33339 2.29791 9.63139 1.99991 10.0001 1.99991H14.0854L13.2241 1.13791C12.9634 0.877243 12.9634 0.455909 13.2241 0.195243C13.4847 -0.065424 13.9061 -0.065424 14.1667 0.195243L15.5487 1.57791C15.8401 1.86858 16.0001 2.25524 16.0001 2.66658ZM12.0767 7.90324L6.66672 6.33324V1.40458C6.66672 0.740576 6.21272 0.124576 5.55739 0.0179094C4.72206 -0.118091 4.00006 0.523243 4.00006 1.33324V11.2659L2.49872 9.73791C2.43406 9.67324 2.32206 9.58991 2.17406 9.49324C1.55339 9.14724 0.736056 9.28458 0.272056 9.90591C-0.17261 10.5019 -0.0492769 11.3519 0.47539 11.8779L3.12672 14.5932C4.00472 15.4926 5.20872 15.9992 6.46539 15.9992H11.3327C12.8054 15.9992 13.9994 14.8052 13.9994 13.3326V10.4632C13.9994 9.27658 13.2154 8.23324 12.0761 7.90258L12.0767 7.90324Z" fill="white"/>
</svg>
