<svg width="32" height="32" viewBox="0 0 32 32" fill="none" xmlns="http://www.w3.org/2000/svg">
<path d="M27 4H5C2.79086 4 1 5.79086 1 8V24C1 26.2091 2.79086 28 5 28H27C29.2091 28 31 26.2091 31 24V8C31 5.79086 29.2091 4 27 4Z" fill="#D12D24"/>
<path opacity="0.15" d="M27 4H5C2.791 4 1 5.791 1 8V24C1 26.209 2.791 28 5 28H27C29.209 28 31 26.209 31 24V8C31 5.791 29.209 4 27 4ZM30 24C30 25.654 28.654 27 27 27H5C3.346 27 2 25.654 2 24V8C2 6.346 3.346 5 5 5H27C28.654 5 30 6.346 30 8V24Z" fill="black"/>
<path opacity="0.2" d="M27 5H5C3.343 5 2 6.343 2 8V9C2 7.343 3.343 6 5 6H27C28.657 6 30 7.343 30 9V8C30 6.343 28.657 5 27 5Z" fill="white"/>
<path d="M19.8073 16L21.0003 14.358L19.0693 14.985L17.8763 13.342V15.373L15.9453 16L17.8763 16.627V18.658L19.0693 17.015L21.0003 17.642L19.8073 16Z" fill="white"/>
<path d="M15.9512 19.325C14.1142 20.975 11.2882 20.825 9.63718 18.988C7.98618 17.151 8.13718 14.325 9.97418 12.674C11.8112 11.024 14.6372 11.174 16.2882 13.011C15.8462 12.312 15.2532 11.719 14.5542 11.277C11.9462 9.62702 8.49418 10.403 6.84318 13.011C5.19318 15.619 5.96918 19.071 8.57718 20.722C11.1852 22.372 14.6372 21.596 16.2882 18.988C16.1822 19.106 16.0692 19.219 15.9512 19.325Z" fill="white"/>
</svg>
