<svg width="32" height="32" viewBox="0 0 32 32" fill="none" xmlns="http://www.w3.org/2000/svg">
<path d="M27 4H5C2.79086 4 1 5.79086 1 8V24C1 26.2091 2.79086 28 5 28H27C29.2091 28 31 26.2091 31 24V8C31 5.79086 29.2091 4 27 4Z" fill="white"/>
<path d="M1.63672 5.846H30.3607C29.6497 4.738 28.4137 4 26.9987 4H4.99872C3.58472 4 2.34872 4.738 1.63672 5.846Z" fill="#A62842"/>
<path d="M2.03 7.69199C2.022 7.79499 2 7.89399 2 7.99999V9.53899H31V7.99999C31 7.89499 30.978 7.79599 30.97 7.69199H2.03Z" fill="#A62842"/>
<path d="M2 11.385H31V13.231H2V11.385Z" fill="#A62842"/>
<path d="M2 15.077H31V16.923H2V15.077Z" fill="#A62842"/>
<path d="M1 18.769H31V20.615H1V18.769Z" fill="#A62842"/>
<path d="M1 24C1 24.105 1.023 24.204 1.031 24.308H30.969C30.977 24.205 31 24.106 31 24V22.461H1V24Z" fill="#A62842"/>
<path d="M30.3607 26.1539H1.63672C2.34772 27.2619 3.58372 27.9999 4.99872 27.9999H26.9987C28.4127 27.9999 29.6487 27.2619 30.3607 26.1539Z" fill="#A62842"/>
<path d="M5 4H16V16.923H1V8C1 5.792 2.792 4 5 4Z" fill="#102D5E"/>
<path opacity="0.15" d="M27 4H5C2.791 4 1 5.791 1 8V24C1 26.209 2.791 28 5 28H27C29.209 28 31 26.209 31 24V8C31 5.791 29.209 4 27 4ZM30 24C30 25.654 28.654 27 27 27H5C3.346 27 2 25.654 2 24V8C2 6.346 3.346 5 5 5H27C28.654 5 30 6.346 30 8V24Z" fill="black"/>
<path opacity="0.2" d="M27 5H5C3.343 5 2 6.343 2 8V9C2 7.343 3.343 6 5 6H27C28.657 6 30 7.343 30 9V8C30 6.343 28.657 5 27 5Z" fill="white"/>
<path d="M4.59934 7.46307L5.19134 7.03307H4.46034L4.23434 6.33807L4.00834 7.03307H3.27734L3.86834 7.46307L3.64234 8.15807L4.23434 7.72907L4.82534 8.15807L4.59934 7.46307Z" fill="white"/>
<path d="M7.57981 7.46307L8.17181 7.03307H7.44081L7.21481 6.33807L6.98881 7.03307H6.25781L6.84881 7.46307L6.62281 8.15807L7.21481 7.72907L7.80581 8.15807L7.57981 7.46307Z" fill="white"/>
<path d="M10.5613 7.46307L11.1523 7.03307H10.4213L10.1953 6.33807L9.96928 7.03307H9.23828L9.82928 7.46307L9.60428 8.15807L10.1953 7.72907L10.7863 8.15807L10.5613 7.46307Z" fill="white"/>
<path d="M6.06419 9.28302L6.65619 8.85402H5.92519L5.69919 8.15802L5.47319 8.85402H4.74219L5.33319 9.28302L5.10719 9.97902L5.69919 9.54902L6.29019 9.97902L6.06419 9.28302Z" fill="white"/>
<path d="M9.04566 9.28302L9.63666 8.85402H8.90566L8.67966 8.15802L8.45366 8.85402H7.72266L8.31366 9.28302L8.08866 9.97902L8.67966 9.54902L9.27066 9.97902L9.04566 9.28302Z" fill="white"/>
<path d="M12.0261 9.28302L12.6171 8.85402H11.8861L11.6601 8.15802L11.4341 8.85402H10.7031L11.2951 9.28302L11.0691 9.97902L11.6601 9.54902L12.2521 9.97902L12.0261 9.28302Z" fill="white"/>
<path d="M6.06419 12.924L6.65619 12.494H5.92519L5.69919 11.799L5.47319 12.494H4.74219L5.33319 12.924L5.10719 13.619L5.69919 13.19L6.29019 13.619L6.06419 12.924Z" fill="white"/>
<path d="M9.04566 12.924L9.63666 12.494H8.90566L8.67966 11.799L8.45366 12.494H7.72266L8.31366 12.924L8.08866 13.619L8.67966 13.19L9.27066 13.619L9.04566 12.924Z" fill="white"/>
<path d="M12.0261 12.924L12.6171 12.494H11.8861L11.6601 11.799L11.4341 12.494H10.7031L11.2951 12.924L11.0691 13.619L11.6601 13.19L12.2521 13.619L12.0261 12.924Z" fill="white"/>
<path d="M13.5378 7.46307L14.1288 7.03307H13.3978L13.1718 6.33807L12.9458 7.03307H12.2148L12.8068 7.46307L12.5808 8.15807L13.1718 7.72907L13.7638 8.15807L13.5378 7.46307Z" fill="white"/>
<path d="M4.59934 11.1039L5.19134 10.6739H4.46034L4.23434 9.97888L4.00834 10.6739H3.27734L3.86834 11.1039L3.64234 11.7989L4.23434 11.3689L4.82534 11.7989L4.59934 11.1039Z" fill="white"/>
<path d="M7.57981 11.1039L8.17181 10.6739H7.44081L7.21481 9.97888L6.98881 10.6739H6.25781L6.84881 11.1039L6.62281 11.7989L7.21481 11.3689L7.80581 11.7989L7.57981 11.1039Z" fill="white"/>
<path d="M10.5613 11.1039L11.1523 10.6739H10.4213L10.1953 9.97888L9.96928 10.6739H9.23828L9.82928 11.1039L9.60428 11.7989L10.1953 11.3689L10.7863 11.7989L10.5613 11.1039Z" fill="white"/>
<path d="M13.5378 11.1039L14.1288 10.6739H13.3978L13.1718 9.97888L12.9458 10.6739H12.2148L12.8068 11.1039L12.5808 11.7989L13.1718 11.3689L13.7638 11.7989L13.5378 11.1039Z" fill="white"/>
<path d="M4.59934 14.744L5.19134 14.315H4.46034L4.23434 13.619L4.00834 14.315H3.27734L3.86834 14.744L3.64234 15.44L4.23434 15.01L4.82534 15.44L4.59934 14.744Z" fill="white"/>
<path d="M7.57981 14.744L8.17181 14.315H7.44081L7.21481 13.619L6.98881 14.315H6.25781L6.84881 14.744L6.62281 15.44L7.21481 15.01L7.80581 15.44L7.57981 14.744Z" fill="white"/>
<path d="M10.5613 14.744L11.1523 14.315H10.4213L10.1953 13.619L9.96928 14.315H9.23828L9.82928 14.744L9.60428 15.44L10.1953 15.01L10.7863 15.44L10.5613 14.744Z" fill="white"/>
<path d="M13.5378 14.744L14.1288 14.315H13.3978L13.1718 13.619L12.9458 14.315H12.2148L12.8068 14.744L12.5808 15.44L13.1718 15.01L13.7638 15.44L13.5378 14.744Z" fill="white"/>
</svg>
