<svg width="24" height="24" viewBox="0 0 24 24" fill="none" xmlns="http://www.w3.org/2000/svg">
<path d="M17.7886 20.0312C18.3755 20.6181 19.323 20.6181 19.9099 20.0312C20.4968 19.4443 20.4968 18.4968 19.9099 17.9099L5.06066 3.06066C4.47376 2.47376 3.52624 2.47376 2.93934 3.06066C2.35244 3.64756 2.35244 4.59508 2.93934 5.18198L17.7886 20.0312Z" fill="black"/>
<path d="M5.05907 20.0312C4.47218 20.6181 3.52465 20.6181 2.93775 20.0312C2.35086 19.4443 2.35086 18.4968 2.93775 17.9099L17.787 3.06066C18.3739 2.47376 19.3214 2.47376 19.9083 3.06066C20.4952 3.64756 20.4952 4.59508 19.9083 5.18198L5.05907 20.0312Z" fill="black"/>
</svg>
